# xmcd
# 
# Track frame offsets:
#     150
#     16213
#     30088
#     39175
#     50600
#     63888
#     80388
#     90500
#     100760
#     111538
# 
# Disc length: 1632
# 
# Revision: 3
# Processed by: cddbd v1.5.2PL0 Copyright (c) Steve Scherf et al.
# Submitted via: fre:ac v1.0.27
# 
DISCID=69065e0a
DTITLE=Clancy Brothers and Tommy Makem - Greatest Irish Hits
DYEAR=0
DGENRE=Celtic
TTITLE0=Patriot Game
TTITLE1=The Jug Of Punch
TTITLE2=The Moonshiner
TTITLE3=Old Maid In The Garrett
TTITLE4=The Wild Colonial Boy
TTITLE5=Four Greenfields
TTITLE6=Wild Rover
TTITLE7=Brennon On The Moor
TTITLE8=When We Were Under The King
TTITLE9=Mountain Dew
EXTD=
EXTT0=
EXTT1=
EXTT2=
EXTT3=
EXTT4=
EXTT5=
EXTT6=
EXTT7=
EXTT8=
EXTT9=
PLAYORDER=
